<?xml version="1.0" encoding="UTF-8"?>
<svg id="Layer_2" data-name="Layer 2" xmlns="http://www.w3.org/2000/svg" viewBox="0 0 293.44 289.15">
  <defs>
    <style>
      .cls-1 {
        fill: #323232;
        stroke-width: 0px;
      }
    </style>
  </defs>
  <g id="_Í_ã_1" data-name="Í¼²ã_1">
    <g>
      <path class="cls-1" d="m117.33,173.19c-2.41-2.41-6.31-2.41-8.71,0l-54.84,54.84c-2.41,2.41-2.41,6.3,0,8.71,1.2,1.2,2.78,1.8,4.36,1.8s3.15-.6,4.36-1.8l54.84-54.84c2.41-2.41,2.41-6.3,0-8.71Z"/>
      <path class="cls-1" d="m70.76,245.02c-2.41,2.41-2.41,6.31,0,8.71,1.2,1.2,2.78,1.8,4.36,1.8s3.15-.6,4.36-1.8l54.84-54.84c2.41-2.41,2.41-6.31,0-8.71-2.41-2.41-6.31-2.41-8.71,0l-54.84,54.84Z"/>
      <path class="cls-1" d="m244.55,96.6c1.24,1.24,2.98,1.89,4.68,1.79,1.75-.09,3.37-.93,4.47-2.29l38.37-47.67c1.97-2.45,1.78-5.99-.44-8.22l-25.08-25.08c-2.23-2.22-5.76-2.41-8.22-.44l-47.67,38.38c-1.36,1.1-2.2,2.72-2.29,4.47-.09,1.75.56,3.45,1.8,4.69l3.18,3.18-58.11,58.11-50.82-50.82,29.8-29.8c2.41-2.41,2.41-6.31,0-8.71L101.78,1.73c-2.31-2.31-6.4-2.31-8.71,0L15.18,79.61c-.78.78-1.34,1.76-1.61,2.83L.19,134.67c-.54,2.11.07,4.35,1.61,5.88l13.03,13.03c1.2,1.2,2.78,1.8,4.36,1.8s3.15-.6,4.36-1.8l47.75-47.75,37.67,37.67c-2.91,1.05-5.6,2.67-7.86,4.92L24.61,224.93c-8.32,8.33-8.32,21.88,0,30.2l27.76,27.76c4.03,4.03,9.4,6.26,15.1,6.26s11.07-2.22,15.1-6.26l76.5-76.5c2.29-2.29,3.89-5,4.92-7.86l81.84,81.84c2.85,2.85,6.64,4.42,10.68,4.42s7.82-1.57,10.68-4.42l11.78-11.78c2.86-2.85,4.43-6.64,4.43-10.68s-1.57-7.82-4.42-10.68l-95.71-95.71,58.1-58.11,3.19,3.18ZM19.19,140.51l-6.19-6.19,12.09-47.19L97.42,14.8l23.74,23.74-29.79,29.79s0,0-.01,0c0,0,0,0,0,.01l-24.41,24.41s0,0,0,0h0s-47.74,47.75-47.74,47.75Zm131.17,57.17l-76.5,76.5c-3.41,3.41-9.37,3.41-12.78,0h0s-27.76-27.76-27.76-27.76c-3.52-3.53-3.52-9.26,0-12.78l76.5-76.5c1.71-1.71,3.97-2.65,6.39-2.65s4.68.94,6.39,2.64l27.77,27.78c3.52,3.53,3.51,9.25,0,12.77Zm120.71,60.23c0,.43-.1,1.26-.82,1.97l-11.78,11.78c-.71.71-1.53.81-1.96.81s-1.25-.1-1.96-.81l-95.47-95.47s0,0,0,0l-27.76-27.76-51.31-51.31,15.71-15.71,174.55,174.54c.71.71.81,1.53.81,1.96Zm-96.52-115.1l-7.06-7.06-3.53-3.53,62.47-62.46c1.16-1.16,1.8-2.72,1.8-4.36s-.65-3.2-1.81-4.35l-2.69-2.69,38.01-30.6,17.26,17.26-30.6,38.01-2.69-2.69c-2.4-2.4-6.3-2.4-8.71,0l-62.46,62.46Z"/>
    </g>
  </g>
</svg>