<?xml version="1.0" encoding="UTF-8"?>
<svg id="Layer_2" data-name="Layer 2" xmlns="http://www.w3.org/2000/svg" viewBox="0 0 158.85 149.45">
  <defs>
    <style>
      .cls-1 {
        fill: #1d1d1b;
        stroke: #231f20;
        stroke-miterlimit: 10;
      }
    </style>
  </defs>
  <g id="_Ñëîé_1" data-name="Ñëîé 1">
    <g>
      <path class="cls-1" d="m146.36,27.72h-4.02c-1.4-15.24-14.25-27.22-29.86-27.22s-28.45,11.98-29.86,27.22h-47.76c0-4.42,0-7.07,0-7.13-.03-3.76-1.53-7.28-4.21-9.92-3.22-3.17-7.47-4.91-11.98-4.91-.05,0-.1,0-.14,0-4.57.04-8.84,1.85-12.04,5.11C2.63,14.8.5,19.99.5,25.5c0,0,.05,91.57.04,99.73h.03c-.38,5.85,1.66,11.83,6.16,16.25,4.8,4.72,11.15,7.33,17.88,7.34,5.26.01,67.18.12,108.66.12,4.64,0,9.04,0,13.06,0,6.62,0,12-5.39,12-12.01l.02-97.21c0-3.21-1.25-6.22-3.51-8.49-2.27-2.27-5.28-3.51-8.48-3.51Zm8,12l-.02,65.32h-83.05c-.55,0-1-.45-1-1V31.72h12.23c.58,13.58,10.67,28.74,22.31,46.21,1.95,2.93,5.11,7.59,5.98,9.04.87,1.45,2.5,1.36,3.37-.04.87-1.4,5.38-8.45,8.04-12.52,10.09-15.45,19.63-30.07,20.22-42.69h3.92c2.14,0,4.14.83,5.66,2.34,1.51,1.51,2.34,3.52,2.34,5.66Zm-98.04,105.16v-58.01c0-1.66-1.34-3-3-3h-18.46c0-2.73,0-5.5,0-8.28h18.46c1.66,0,3-1.34,3-3V31.72h9.97v74.32c0,1.66,1.34,3,3,3h85.05v9.13h-85.05c-1.66,0-3,1.34-3,3v23.72c-3.45,0-6.79,0-9.97-.01ZM138.46,30.49c0,11.7-9.52,26.29-19.6,41.74-1.94,2.97-3.93,6.01-5.89,9.1-.3.47-.78.47-1.09,0-1.26-1.91-2.51-3.78-3.73-5.62-11.62-17.46-21.66-32.54-21.66-45.22,0-14.33,11.66-25.99,25.99-25.99s25.99,11.66,25.99,25.99Zm-86.15,40.11c0,.55-.45,1-1,1h-16.46c0-15.15,0-30.11,0-39.87h17.45v38.87ZM4.5,25.5c0-4.45,1.72-8.65,4.84-11.82,2.45-2.49,5.73-3.88,9.23-3.91,3.46-.04,6.79,1.31,9.29,3.76,1.92,1.89,2.99,4.41,3.01,7.09,0,.6-.01,62.82-.02,91.36-.06-.06-.12-.13-.18-.2-3.25-3.2-7.55-4.93-12.13-4.91-4.57.04-8.84,1.85-12.04,5.11-.72.74-1.36,1.52-1.95,2.33,0-21.4-.04-88.81-.04-88.81Zm14.07,85.37s.07,0,.11,0c3.46,0,6.71,1.33,9.18,3.76,1.81,1.79,2.86,4.14,2.99,6.67,0,.37,0,.72,0,1.06-.13,2.46-1.13,4.75-2.87,6.52-1.2,1.22-2.73,1.99-4.4,2.22-.55.08-.99.52-.99,1.07l.02,2c0,.55.46,1,1.01.95,2.73-.25,5.27-1.45,7.21-3.43,2.44-2.48,3.83-5.7,4.01-9.14,0-.07.02-20.43.02-34.67h16.46c.55,0,1,.45,1,1v56c-14.84-.02-25.63-.04-27.69-.05-5.68-.01-11.03-2.21-15.08-6.2-6.63-6.52-6.72-17.22-.2-23.85,2.45-2.49,5.73-3.88,9.23-3.91Zm51.72,34.03v-21.73c0-.55.45-1,1-1h83.05v14.76c0,4.41-3.59,8.01-8.01,8.01-20.63.02-50.84-.01-76.04-.05Z"/>
      <path class="cls-1" d="m124.49,30.49c0-6.63-5.39-12.02-12.02-12.02s-12.02,5.39-12.02,12.02,5.39,12.02,12.02,12.02,12.02-5.39,12.02-12.02Zm-20.03,0c0-4.42,3.6-8.02,8.02-8.02s8.02,3.6,8.02,8.02-3.6,8.02-8.02,8.02-8.02-3.6-8.02-8.02Z"/>
    </g>
  </g>
</svg>