<?xml version="1.0" encoding="UTF-8"?>
<svg id="Layer_2" data-name="Layer 2" xmlns="http://www.w3.org/2000/svg" viewBox="0 0 464.44 417.3">
  <defs>
    <style>
      .cls-1 {
        fill: #2e2d31;
        stroke-width: 0px;
      }
    </style>
  </defs>
  <g id="Layer_1-2" data-name="Layer 1">
    <path class="cls-1" d="m224.64,3.77c-2.65,2.09-7.4,6-10.61,8.65-3.07,2.79-7.4,6.56-9.77,8.51-2.24,1.95-6.56,5.72-9.77,8.38-3.07,2.65-8.93,7.68-13.12,11.16-4.05,3.49-8.09,6.98-8.93,7.68-1.26,1.25-16.33,14.09-44.1,37.82-1.95,1.67-8.79,7.53-15.35,13.26-14.65,12.7-15.07,13.12-35.59,30.56-9.21,7.81-18.98,16.19-21.77,18.7-2.79,2.37-7.4,6.14-10.19,8.51-2.93,2.23-7.26,6-9.77,8.38-2.51,2.23-7.82,6.98-11.86,10.32C-.46,196.21-3.39,200.4,2.76,206.54c4.6,4.6,8.37,3.35,19.96-6.42,6-5.02,11.3-8.93,11.58-8.51.28.28.7,49.96.84,110.25.42,107.59.42,109.82,3.21,112.48,2.79,2.79,4.88,2.79,194.53,2.93,174.16.14,191.88,0,193.97-2.09,1.96-1.96,2.23-13.54,2.65-113.04.14-60.98.7-110.94.98-110.94.42,0,5.58,4.05,11.58,9.07,11.44,9.63,15.21,10.89,19.82,6.28,6-6,2.37-11.45-20.93-30.84-5.02-4.18-10.75-9.21-12.7-11.02-1.96-1.95-5.02-4.75-6.98-6.14-1.81-1.53-7.54-6.42-12.7-10.88l-9.35-8.38-.42-64.19-.42-64.2-3.35-2.65c-3.21-2.65-5.3-2.79-34.47-2.37-27.77.42-31.4.7-33.63,2.93-2.23,2.23-2.51,5.86-2.93,33.07-.28,19.82-.98,30.7-1.81,30.7-1.12,0-16.47-12.14-19.4-15.49-.42-.42-9.49-8.23-20.23-17.3-10.75-9.21-21.77-18.7-24.56-21.35-10.05-9.07-22.89-18.42-25.68-18.42-1.53,0-5.03,1.68-7.67,3.77h0Zm13.95,21.63c2.93,2.79,11.45,10.05,30,25.96,2.37,1.95,6.7,5.72,9.77,8.51,3.07,2.79,9.07,7.82,13.26,11.3,4.19,3.49,9.77,8.23,12.56,10.6,2.65,2.38,7.39,6.56,10.33,9.07,2.93,2.65,7.39,6.56,9.91,8.93,2.51,2.23,5.72,5.16,7.26,6.28,4.05,2.93,15.35,12.56,32.93,27.91,8.38,7.25,17.72,15.49,20.93,18.14,3.21,2.65,10.46,8.79,16.05,13.68l10.05,8.93v110.67c0,60.84-.42,111.64-.84,112.9-.84,1.95-17.86,2.23-178.48,2.23s-177.65-.28-178.49-2.23c-.42-1.26-.84-51.91-.84-112.76v-110.66l5.16-4.75c2.93-2.65,10.32-9.07,16.46-14.23,6.14-5.3,14.93-12.98,19.54-16.88,4.61-4.05,13.12-11.31,18.84-16.05,5.72-4.88,12.7-10.75,15.35-13.12,2.79-2.51,9.07-7.82,13.96-12,5.02-4.19,10.05-8.65,11.3-9.77,1.11-1.25,5.58-5.02,9.63-8.51,13.95-11.72,30-25.54,30.7-26.38.42-.56,2.65-2.38,4.89-4.19,3.77-2.79,14.37-12,26.51-22.75,5.16-4.75,8.93-4.89,13.26-.84h0Zm141.64,47.17c0,37.26-.42,48.15-1.68,48.15-2.23,0-33.63-26.8-35.45-30.15-1.39-2.65-1.81-61.12-.42-64.61.84-1.95,3.49-2.23,19.26-1.95l18.28.42v48.14Z"/>
    <path class="cls-1" d="m129.05,198.86c-23.72,6-42,26.09-46.75,51.35-5.02,26.93,10.05,55.54,35.73,68.1,9.35,4.47,10.05,4.61,27.07,4.61s17.72-.14,27.07-4.61c6.7-3.21,12.84-7.81,19.96-14.93l10.32-10.33h19.96c11.16,0,21.21-.42,22.47-.84,1.12-.56,3.07-2.65,4.32-4.89,2.65-5.3,6.84-5.3,9.63,0,1.12,2.23,3.35,4.61,5.02,5.03,4.05,1.25,10.33-1.68,12.14-5.72,2.09-4.6,4.18-4.19,9.49,1.54,2.51,2.79,5.72,4.88,7.54,4.88s5.16-2.09,7.82-4.88c2.51-2.65,5.02-4.89,5.58-4.89s2.93,2.09,5.3,4.6c3.77,4.05,5.44,4.89,13.26,5.58l8.93.98,16.19-9.35c8.93-5.3,17.72-10.33,19.68-11.16,5.17-2.65,8.79-5.02,10.75-7.4,2.23-2.65,2.23-8.65.14-11.44-1.81-2.23-35.86-22.61-43.4-25.96-2.93-1.25-20.93-1.68-70.06-1.68h-66.29l-9.21-9.63c-16.89-17.86-39.77-24.84-62.66-18.98h0Zm28.75,18c3.63,1.12,7.96,2.79,9.77,3.91,5.86,3.21,13.96,11.44,16.75,16.75,1.39,2.93,3.91,5.86,5.58,6.7,1.95,1.12,23.59,1.53,70.89,1.4,74.24-.14,69.07-.56,84.98,8.51,8.51,5.02,8.65,5.16,6.28,7.81-3.49,3.91-16.61,11.59-21.49,12.56-5.3.98-8.65-1.95-13.26-11.58-1.81-3.91-4.88-7.82-6.7-8.93-4.74-2.51-10.19-.7-12.56,4.05-1.81,3.35-6.28,6.84-6.98,5.45-3.35-5.72-5.58-8.1-8.93-9.21-3.49-1.26-4.6-.98-7.81,1.95-1.95,1.95-3.63,4.05-3.63,4.61,0,.69-1.12,1.53-2.65,1.95-1.67.42-3.77-.84-6.14-3.91-5.58-7.12-8.93-7.12-15.21-.42-2.93,3.21-5.3,6.28-5.3,6.98s-1.4,3.07-3.07,5.3l-3.07,4.19h-44.24l-3.35,3.63c-1.96,2.09-3.49,4.61-3.49,5.58,0,2.79-11.72,14.09-18.28,17.44-9.07,4.75-29.02,5.45-38.09,1.4-14.79-6.56-24.56-18.42-27.35-33.49-1.67-9.35-.28-22.33,3.35-29.03,2.79-5.44,14.65-18.56,16.75-18.56.98,0,2.51-.84,3.35-1.81,4.75-4.61,23.17-6.42,33.91-3.21h0Z"/>
    <path class="cls-1" d="m133.24,229c-9.77,3.77-17.58,12.7-20.93,23.44-2.51,8.23-2.51,8.79,0,17.16,6,19.4,24.98,29.17,44.24,22.61,12.7-4.33,22.47-18.28,22.47-31.96-.14-14.1-8.65-25.96-22.33-31.26-9.35-3.63-14.37-3.63-23.45,0h0Zm19.54,18c4.19,2.65,9.07,10.05,9.07,13.82,0,.98-1.25,4.05-2.79,7.12-3.21,6.14-9.91,9.21-17.44,7.81-5.02-.98-11.3-7.25-12.56-12.42-1.25-4.75,3.07-13.26,8.09-16.33,5.72-3.49,9.91-3.49,15.63,0h0Z"/>
  </g>
</svg>