<?xml version="1.0" encoding="UTF-8"?>
<svg id="Layer_2" data-name="Layer 2" xmlns="http://www.w3.org/2000/svg" viewBox="0 0 334.44 313.23">
  <defs>
    <style>
      .cls-1 {
        fill: #323232;
        stroke-width: 0px;
      }
    </style>
  </defs>
  <g id="_Í_ã_1" data-name="Í¼²ã_1">
    <g>
      <path class="cls-1" d="m87.51,157.66c0,42.58,72.15,119.53,75.23,122.79,1.16,1.24,2.78,1.93,4.48,1.93s3.32-.7,4.48-1.93c3.07-3.25,75.23-80.21,75.23-122.79s-35.76-79.71-79.71-79.71-79.71,35.76-79.71,79.71Zm147.09,0c0,29.17-45.08,84.9-67.38,109.48-22.31-24.58-67.38-80.3-67.38-109.48,0-37.16,30.23-67.39,67.38-67.39s67.38,30.23,67.38,67.39Z"/>
      <path class="cls-1" d="m130.42,152.98c0,20.27,16.5,36.77,36.77,36.77s36.77-16.49,36.77-36.77-16.5-36.77-36.77-36.77-36.77,16.49-36.77,36.77Zm61.22,0c0,13.48-10.97,24.45-24.44,24.45s-24.45-10.97-24.45-24.45,10.97-24.45,24.45-24.45,24.44,10.97,24.44,24.45Z"/>
      <path class="cls-1" d="m332.64,162.79L171.58,1.73c-2.31-2.31-6.4-2.31-8.71,0L1.8,162.79c-1.76,1.76-2.29,4.41-1.33,6.71.95,2.3,3.2,3.8,5.69,3.8h43.58v133.76c0,3.4,2.76,6.16,6.16,6.16h222.63c3.4,0,6.16-2.76,6.16-6.16v-133.76h43.58c2.49,0,4.74-1.5,5.69-3.8.95-2.3.43-4.95-1.33-6.71Zm-54.1-1.8c-3.4,0-6.16,2.76-6.16,6.16v133.76H62.07v-133.76c0-3.4-2.76-6.16-6.16-6.16H21.03L167.22,14.8l146.19,146.19h-34.87Z"/>
    </g>
  </g>
</svg>